<svg id="Layer_1" data-name="Layer 1" xmlns="http://www.w3.org/2000/svg" viewBox="0 0 40 40"><defs><style>.cls-1,.cls-2{fill:#06c;}.cls-2{fill-rule:evenodd;}</style></defs><title>rocheSVG</title><path class="cls-1" d="M20,40A20,20,0,1,1,40,20,20,20,0,0,1,20,40ZM20,1A19,19,0,1,0,39,20,19,19,0,0,0,20,1Z"/><path class="cls-2" d="M25.73,27.8V21.7c0-1.39-.7-2.34-1.9-2.34a2.14,2.14,0,0,0-1.92,1.26,2.45,2.45,0,0,0-.11.84V27.8H18.7V20.33c0-1.35,0-2.53,0-3.5l2.83-.05,0.15,1.61h0.07A3.83,3.83,0,0,1,25,16.64c2.18,0,3.77,1.48,3.77,4.67v6.5h-3ZM14.9,15.56a1.68,1.68,0,1,1,0-3.36A1.68,1.68,0,1,1,14.9,15.56ZM13.26,27.75h3.1v-11h-3.1v11Z"/></svg>