<svg id="Layer_1" data-name="Layer 1" xmlns="http://www.w3.org/2000/svg" viewBox="0 0 40 40"><defs><style>.cls-1,.cls-2{fill:#06c;}.cls-1{fill-rule:evenodd;}</style></defs><title>mail</title><path class="cls-1" d="M11.43,14.72a0.22,0.22,0,0,0-.22.22v0.22l8.91,6.79L29,15.15V14.94a0.22,0.22,0,0,0-.22-0.22H11.43Zm-0.22,1.52v9.48a0.22,0.22,0,0,0,.22.22H28.81A0.22,0.22,0,0,0,29,25.72V16.24l-8.64,6.59a0.44,0.44,0,0,1-.53,0Z"/><path class="cls-2" d="M20,40A20,20,0,1,1,40,20,20,20,0,0,1,20,40ZM20,1A19,19,0,1,0,39,20,19,19,0,0,0,20,1Z"/></svg>