<svg id="Layer_1" data-name="Layer 1" xmlns="http://www.w3.org/2000/svg" viewBox="0 0 24 24"><defs><style>.cls-1{fill:#17313f;}</style></defs><title>rocheSVG</title><path class="cls-1" d="M12,24A12,12,0,1,1,24,12,12,12,0,0,1,12,24ZM12,1A11,11,0,1,0,23,12,11.05,11.05,0,0,0,12,1Z"/><path class="cls-1" d="M11.28,13.88a3.49,3.49,0,0,1,.16-1.1,2.82,2.82,0,0,1,.6-0.9l0.77-.79a1.77,1.77,0,0,0,.49-1.19,1.36,1.36,0,0,0-.32-1A1.22,1.22,0,0,0,12,8.59a1.41,1.41,0,0,0-1,.32,1.07,1.07,0,0,0-.36.85H9.62a2,2,0,0,1,.68-1.53A2.53,2.53,0,0,1,12,7.64a2.39,2.39,0,0,1,1.73.59,2.15,2.15,0,0,1,.62,1.63,2.94,2.94,0,0,1-.95,2l-0.64.63a2,2,0,0,0-.43,1.36H11.28Zm0,1.86a0.64,0.64,0,0,1,.16-0.45,0.61,0.61,0,0,1,.48-0.18,0.62,0.62,0,0,1,.48.18,0.64,0.64,0,0,1,.16.45,0.62,0.62,0,0,1-.16.44,0.63,0.63,0,0,1-.48.17A0.58,0.58,0,0,1,11.23,15.74Z"/></svg>