<svg id="Layer_1" data-name="Layer 1" xmlns="http://www.w3.org/2000/svg" viewBox="0 0 40 40"><defs><style>.cls-1,.cls-2{fill:#06c;}.cls-2{fill-rule:evenodd;}</style></defs><title>rocheSVG</title><path class="cls-1" d="M20,40A20,20,0,1,1,40,20,20,20,0,0,1,20,40ZM20,1A19,19,0,1,0,39,20,19,19,0,0,0,20,1Z"/><path class="cls-2" d="M24.23,17.22A20.9,20.9,0,0,1,23.94,22a10.11,10.11,0,0,1-3.81,5.68,0.43,0.43,0,0,1-.67,0l-2-2.13a0.43,0.43,0,0,1,.09-0.71,7.14,7.14,0,0,0,1.82-2.06,5.56,5.56,0,0,0,.52-1.46c0.07-.32,0-0.4-0.36-0.39-0.85,0-1.7,0-2.54,0a0.74,0.74,0,0,1-.88-0.82q0-3,0-6a0.78,0.78,0,0,1,.9-0.87h6.31a0.79,0.79,0,0,1,.92.9c0,1,0,2,0,3.15"/></svg>