<svg id="Layer_1" data-name="Layer 1" xmlns="http://www.w3.org/2000/svg" xmlns:xlink="http://www.w3.org/1999/xlink" viewBox="0 0 17 17"><defs><style>.cls-1,.cls-2{fill:none;}.cls-2{clip-rule:evenodd;}.cls-3{fill:#17313f;}.cls-4{clip-path:url(#clip-path);}.cls-5{clip-path:url(#clip-path-2);}</style><clipPath id="clip-path"><circle class="cls-1" cx="-144.54" cy="60.08" r="20"/></clipPath><clipPath id="clip-path-2"><path class="cls-2" d="M-153.11,54.8a0.22,0.22,0,0,0-.22.22v0.22l8.91,6.79,8.91-6.79V55a0.22,0.22,0,0,0-.22-0.22h-17.38Zm-0.22,1.52V65.8a0.22,0.22,0,0,0,.22.22h17.38a0.22,0.22,0,0,0,.22-0.22V56.32l-8.64,6.59a0.44,0.44,0,0,1-.53,0Z"/></clipPath></defs><title>secondaryCTA</title><polygon class="cls-3" points="7.12 10.5 9.12 8.5 7.12 6.5 7.79 5.83 10.46 8.5 7.79 11.17 7.12 10.5"/><path class="cls-3" d="M0,8.5A8.5,8.5,0,1,1,8.5,17,8.51,8.51,0,0,1,0,8.5Zm16.06,0A7.56,7.56,0,1,0,8.5,16.06,7.56,7.56,0,0,0,16.06,8.5Z"/></svg>