<svg id="Layer_1" data-name="Layer 1" xmlns="http://www.w3.org/2000/svg" viewBox="0 0 40 40"><defs><style>.cls-1,.cls-2{fill:#06c;}.cls-2{fill-rule:evenodd;}</style></defs><title>rocheSVG</title><path class="cls-1" d="M20,40A20,20,0,1,1,40,20,20,20,0,0,1,20,40ZM20,1A19,19,0,1,0,39,20,19,19,0,0,0,20,1Z"/><path class="cls-2" d="M19.52,19.08a5.12,5.12,0,0,0-1.61,4.35c-0.66-.08-1.26-0.17-1.87-0.22a1.17,1.17,0,0,0-.63.11c-0.59.33-1.15,0.7-1.82,1.12,0.12-.55.2-1,0.34-1.5a0.57,0.57,0,0,0-.26-0.75,5.11,5.11,0,0,1-2.24-5.75,5.71,5.71,0,0,1,4-3.9,6.77,6.77,0,0,1,7.37,2.15,5,5,0,0,1,1.05,2.65A6.48,6.48,0,0,0,19.52,19.08Zm-3.43-2.43a0.78,0.78,0,0,0-.75-0.78,0.76,0.76,0,0,0-.79.73,0.75,0.75,0,0,0,.74.77A0.77,0.77,0,0,0,16.09,16.64Zm4.06-.78a0.78,0.78,0,0,0-.76.76,0.76,0.76,0,0,0,.78.74A0.75,0.75,0,1,0,20.15,15.87ZM27.67,27.8a5.77,5.77,0,0,0-1.55-.65,8.73,8.73,0,0,0-1.61.3A5.41,5.41,0,0,1,20.14,26a4.39,4.39,0,0,1,.7-7.19A5.9,5.9,0,0,1,28.44,20a4.27,4.27,0,0,1-.5,6,1,1,0,0,0-.37,1.44A1.68,1.68,0,0,1,27.67,27.8Zm-6.09-5.86a0.63,0.63,0,1,0,0-1.25A0.63,0.63,0,1,0,21.58,21.94Zm3.93-1.25a0.63,0.63,0,0,0-.63.6,0.62,0.62,0,0,0,.62.65,0.61,0.61,0,0,0,.62-0.59A0.62,0.62,0,0,0,25.5,20.69Z"/></svg>