<svg id="Layer_1" data-name="Layer 1" xmlns="http://www.w3.org/2000/svg" viewBox="0 0 47 25"><defs><style>.cls-1{fill:#fff;fill-rule:evenodd;}</style></defs><title>rocheSVG</title><path class="cls-1" d="M31.79,9.59a2,2,0,0,0-1.21-.36,2.09,2.09,0,0,0-1.28.43V6.51H27.78v10.3h1.52V11.44a0.85,0.85,0,0,1,.88-0.81A0.92,0.92,0,0,1,31,11a2,2,0,0,1,.18,1.09v4.72h1.52V12c0-1.41-.18-1.91-0.87-2.44"/><path class="cls-1" d="M20.87,11.91c-0.22-2.2-1.43-2.67-2.44-2.67-1.42,0-2.28.93-2.44,2.67,0,0.14,0,.4,0,1.22,0,0.6,0,1.09,0,1.21C16.09,16,17,17,18.43,17s2.34-1,2.44-2.63c0-.12,0-0.62,0-1.21,0-.27,0-1,0-1.22M19.4,13.13c0,1,0,1.29,0,1.38a1.05,1.05,0,0,1-.92,1.15,1.07,1.07,0,0,1-.92-1.18s0-.35,0-1.35,0-1.43,0-1.44a0.94,0.94,0,1,1,1.84,0s0,0.43,0,1.44"/><path class="cls-1" d="M37.09,14.27a1.83,1.83,0,0,1,0,.25,1.07,1.07,0,0,1-.92,1.14,1.05,1.05,0,0,1-.92-1.17c0-.17,0-0.35,0-1h3.4s0-.52,0-0.83c0-.12,0-0.33,0-0.76a3.52,3.52,0,0,0-.66-1.85,2.14,2.14,0,0,0-1.74-.83c-1.37,0-2.23.92-2.4,2.67a10.69,10.69,0,0,0,0,1.22c0,0.6,0,1.1,0,1.21,0.09,1.6,1,2.63,2.4,2.63s2.3-1,2.4-2.71H37.09ZM35.21,12.2c0-.34,0-0.41,0-0.51a1,1,0,0,1,.93-1.13,1,1,0,0,1,.93,1.14c0,0.21,0,.36,0,0.51h-1.9Z"/><path class="cls-1" d="M36.5,0h-26L0,12.54,10.54,25h26L47,12.58ZM11.13,1.26H35.9l9.47,11.36L35.9,23.82H11.13L1.63,12.58Z"/><path class="cls-1" d="M15.05,16.18l-0.16-2.53A2.42,2.42,0,0,0,14,11.51a2.39,2.39,0,0,0,.94-2.2A2.44,2.44,0,0,0,12.26,6.6H9.93V16.81h1.5V12.14h0.84c0.48,0,1,.43,1.11,1.65l0.16,2.39a3.93,3.93,0,0,0,.07.63h1.5A3.84,3.84,0,0,1,15.05,16.18ZM11.44,7.91h0.72A1.1,1.1,0,0,1,13.39,9.1c0,0.06,0,.12,0,0.24s0,0.19,0,.24a1.18,1.18,0,0,1-1.16,1.24H11.44V7.91Z"/><path class="cls-1" d="M25.32,14.2l0,0.29a1,1,0,0,1-.92,1.18,1.1,1.1,0,0,1-.93-1.14c0-.3,0-0.52,0-1.39a12.39,12.39,0,0,1,0-1.44,0.94,0.94,0,1,1,1.84,0s0,0.14,0,.44h1.51c0-.1,0-0.19,0-0.24-0.17-2.13-1.44-2.65-2.44-2.65-1.42,0-2.28.93-2.44,2.67,0,0.14,0,.4,0,1.22,0,0.6,0,1.09,0,1.21C22,16,23,17,24.38,17s2.3-.92,2.44-2.63a0.87,0.87,0,0,0,0-.15H25.32Z"/></svg>